# xmcd
#
# Track frame offsets: 
#        150
#        16620
#        33955
#        50163
#        62712
#        83076
#        100144
#        117687
#        135566
#        154447
#
# Disc length: 2274 seconds
#
# Revision: 2
# Processed by: cddbd v1.5.2PL0 Copyright (c) Steve Scherf et al.
# Submitted via: ExactAudioCopyFreeDBPlugin 1.0
#
DISCID=8108e00a
DTITLE=Randy Goodrum - Fool's Paradise (2011 Remastered)
DYEAR=1982
DGENRE=Rock
TTITLE0=We're So Close
TTITLE1=One More Fool
TTITLE2=Savin' It Up
TTITLE3=Win Back Your Heart
TTITLE4=Dues
TTITLE5=One Step Ahead Of The Bad News
TTITLE6=Second Chance At Love (feat. Mary Macgregor)
TTITLE7=Fool's Paradise
TTITLE8=Time To Say I'm Sorry
TTITLE9=Hellbent For Mexico
EXTD=YEAR: 1982
EXTT0=
EXTT1=
EXTT2=
EXTT3=
EXTT4=
EXTT5=
EXTT6=
EXTT7=
EXTT8=
EXTT9=
PLAYORDER=
